<svg width="63" height="88" viewBox="0 0 63 88" fill="none" xmlns="http://www.w3.org/2000/svg">
<path fill-rule="evenodd" clip-rule="evenodd" d="M31.25 68.75L62.5 87.5V12.5C62.5 9.18479 61.183 6.00537 58.8388 3.66117C56.4946 1.31696 53.3152 0 50 0H12.5C9.18479 0 6.00537 1.31696 3.66116 3.66117C1.31696 6.00537 0 9.18479 0 12.5V87.5L31.25 68.75ZM6.25 76.4625L31.25 61.4625L56.25 76.4625V12.5C56.25 10.8424 55.5915 9.25268 54.4194 8.08058C53.2473 6.90848 51.6576 6.25 50 6.25H12.5C10.8424 6.25 9.25269 6.90848 8.08058 8.08058C6.90848 9.25268 6.25 10.8424 6.25 12.5V76.4625Z" fill="black"/>
</svg>
